<?xml version="1.0" encoding="UTF-8"?>
<svg id="Ebene_1" data-name="Ebene 1" xmlns="http://www.w3.org/2000/svg" width="500" height="200" xmlns:xlink="http://www.w3.org/1999/xlink" viewBox="0 0 500 200">
  <defs>
    <clipPath id="clippath">
      <rect x="31.03" y="115.76" width="422.83" height="16.19" fill="none"/>
    </clipPath>
  </defs>
  <g>
    <path d="m38.83,90.33c0-9.15,7.36-19,18.13-19,5.32,0,8.89,3.01,9.67,6.1l.48-1.26c-.17-.57-.74-1.44-.96-1.7l4.1-1.7-3.75,10.41h-1.48l-.04-2.14c-.09-4.4-3.01-7.67-7.63-7.67-7.8,0-13.73,9.85-13.73,17.47,0,5.01,2.61,9.33,8.02,9.33,2.44,0,5.58-1.22,8.24-3.09l.52-1.22-2.09,1.22,1.96-4.84c.83-2,.09-3.01-2.18-3.22l-.96-.09.48-1.26h12.03l-.48,1.26-1,.09c-1.87.17-2.88,1.22-3.66,3.22l-4.01,10.37-2-2.7c-2.53,1.53-5.49,2.53-8.28,2.48-6.84-.04-11.37-5.75-11.37-12.07Z" fill="#e5007d"/>
    <path d="m78.18,102.58c-4.31,0-7.15-3.27-7.15-7.8,0-6.54,5.71-13.51,12.2-13.51,3.66,0,5.49,1.83,5.49,3.92,0,3.09-5.05,6.67-14.34,6.67l-.13.83h1.13c-.04.44-.09.83-.09,1.22,0,3.53,2.18,5.93,5.05,5.93,2.05,0,3.97-1.09,5.75-3.05l.22.09c-1.96,3.66-4.92,5.71-8.15,5.71Zm-2.31-12.03c7.84-.78,9.28-3.22,9.28-5.45,0-1.39-.87-2.35-2.44-2.35-2.88,0-5.49,3.4-6.84,7.8Z" fill="#e5007d"/>
    <path d="m105.68,99.88c1.22,0,2.79-1.31,4.75-3.36l.35.22c-2.88,3.79-5.19,5.71-7.54,5.71-2.22,0-3.23-1.83-1.83-5.23l4.36-10.68c.83-2,.04-2.75-1.22-2.75-2.31,0-5.45,2.75-8.89,7.8l-4.1,10.59h-3.88l6.19-15.91c.61-1.57.39-2.22-.78-2.83l-1.44-.74,8.19-1.61-1.74,4.23-1.61,2.05-.96,2.44h.09c3.75-5.36,7.5-8.5,10.46-8.5,3.7,0,4.88,2.4,3.27,6.19l-4.14,9.85c-.83,2-.35,2.53.48,2.53Z" fill="#e5007d"/>
    <path d="m119.72,102.58c-4.31,0-7.15-3.27-7.15-7.8,0-6.54,5.71-13.51,12.2-13.51,3.66,0,5.49,1.83,5.49,3.92,0,3.09-5.05,6.67-14.34,6.67l-.13.83h1.13c-.04.44-.09.83-.09,1.22,0,3.53,2.18,5.93,5.05,5.93,2.05,0,3.97-1.09,5.75-3.05l.22.09c-1.96,3.66-4.92,5.71-8.15,5.71Zm-2.31-12.03c7.84-.78,9.28-3.22,9.28-5.45,0-1.39-.87-2.35-2.44-2.35-2.88,0-5.49,3.4-6.84,7.8Z" fill="#e5007d"/>
    <path d="m139.81,84.89l-2,2.66-1,2.57h.13c3.53-5.32,6.75-8.63,9.46-8.63,2.14,0,3.18,1.22,3.18,2.88,0,1.57-1.13,2.96-2.66,2.96-1.22,0-2.09-.74-2.09-1.83,0-.57.31-1.09.44-1.18h.74l.26-.7h-.92c-2.14,0-4.84,2.79-8.06,7.8l-4.18,10.76h-3.88l6.19-15.91c.61-1.57.39-2.22-.78-2.83l-1.44-.74,8.19-1.61-1.57,3.79Z" fill="#e5007d"/>
    <path d="m162.6,94.65h-.13c-3.49,5.14-6.75,7.89-9.28,7.89-3.09,0-4.97-2.48-4.97-6.75,0-5.71,5.88-14.42,13.99-14.42,1.66,0,3.27.52,4.44,1.39l3.88-1.22-6.19,15.82c-.7,1.74-.57,2.53.52,2.53s2.48-1,4.75-3.36l.35.22c-3.05,4.01-5.4,5.71-7.63,5.71-1.83,0-2.75-1.13-2.44-2.92l1.66-2.22,1.05-2.66Zm-7.67,5.23c1.79,0,4.36-2.31,7.06-6.45l3.27-8.28c-.87-1.44-2.05-2.09-3.57-2.09-4.97,0-9.37,7.63-9.37,12.64,0,2.83.92,4.18,2.61,4.18Z" fill="#e5007d"/>
    <path d="m176.59,96.87c-.65,1.7.17,2.48,1.35,2.48s2.57-.83,4.58-3.01l.17.09c-1.87,3.27-4.23,5.97-7.06,5.97s-4.4-2.09-2.88-6.06l4.97-12.94h-4.05c2.7-1.39,7.84-4.79,11.42-8.98l-2.7,7.28h5.75l-.65,1.7h-7.1l-.26.78h1.35l-4.88,12.68Z" fill="#e5007d"/>
    <path d="m193.15,102.58c-4.31,0-7.15-3.27-7.15-7.8,0-6.54,5.71-13.51,12.2-13.51,3.66,0,5.49,1.83,5.49,3.92,0,3.09-5.06,6.67-14.34,6.67l-.13.83h1.13c-.04.44-.09.83-.09,1.22,0,3.53,2.18,5.93,5.06,5.93,2.05,0,3.96-1.09,5.75-3.05l.22.09c-1.96,3.66-4.92,5.71-8.15,5.71Zm-2.31-12.03c7.84-.78,9.28-3.22,9.28-5.45,0-1.39-.87-2.35-2.44-2.35-2.88,0-5.49,3.4-6.84,7.8Z" fill="#e5007d"/>
    <path d="m222.18,88.24h1.57l-3.62,9.37c-.74,2.05-.22,3.01,2,3.22l.96.09-.48,1.26h-12.55l.48-1.26,1-.09c1.92-.17,3.31-1.22,4.05-3.22l8.19-21.35c.74-2.05.13-3.01-2-3.22l-.92-.09.48-1.26h12.55l-.48,1.26-1.05.09c-2,.17-3.31,1.22-4.05,3.22l-3.66,9.59h14.03l3.66-9.59c.74-2.05.13-3.01-2-3.22l-.92-.09.48-1.26h12.55l-.48,1.26-1,.09c-2,.17-3.36,1.22-4.1,3.22l-8.19,21.35c-.74,2.05-.17,3.01,2.05,3.22l.92.09-.48,1.26h-12.55l.48-1.26,1-.09c1.92-.17,3.31-1.22,4.05-3.22l3.62-9.37h1.53l.3-.87h-17.12l-.31.87Z" fill="#e5007d"/>
    <path d="m239.53,109.42c0-1.26.96-2.48,2.35-2.48,1.22,0,2.14.83,2.14,2.05,0,.35-.09.7-.17.87h-.78l-.22.65c2.57.22,5.71-1.57,9.81-5.84-.35-7.28-1.53-16.43-2.18-19.04-.31-1.22-.7-1.7-2.57-2.83l5.88-1.61c1.09,4.4,2.35,12.55,2.44,18.74l-1.05,1.18.09.83c6.49-6.93,8.98-13.9,8.85-16.91h-1.61c-.22-.35-.35-.83-.35-1.35,0-1.18.87-2.35,2.53-2.35,1.52,0,2.31,1.05,2.31,3.05,0,3.36-2.7,9.94-9.76,18-6.23,7.15-10.46,9.85-14.47,9.85-2.13,0-3.22-1.31-3.22-2.79Z" fill="#e5007d"/>
    <path d="m271.78,100.49l-2.92,7.58c-.65,1.79-.31,2.75,1.57,2.92l.92.09-.44,1.13h-10.68l.44-1.13.87-.09c1.7-.17,2.75-1.18,3.4-2.92l8.37-21.79c.61-1.57.39-2.22-.78-2.83l-1.44-.74,8.15-1.61-1.05,2.7-2.18,3.01-1.22,3.05h.17c3.01-4.97,6.71-8.5,9.89-8.5,3.44,0,5.53,2.66,5.53,6.58,0,7.02-6.23,14.29-12.81,14.29-2.09,0-4.23-.65-5.8-1.74Zm3.31-8.54l-2.44,6.32c1.05,1.35,2.83,2.22,4.66,2.22,5.05,0,8.98-7.58,8.98-12.9,0-2.66-1.31-3.66-2.61-3.66-2,0-5.32,2.31-8.58,8.02Z" fill="#e5007d"/>
    <path d="m299.45,102.58c-4.31,0-7.15-3.27-7.15-7.8,0-6.54,5.71-13.51,12.2-13.51,3.66,0,5.49,1.83,5.49,3.92,0,3.09-5.06,6.67-14.34,6.67l-.13.83h1.13c-.04.44-.09.83-.09,1.22,0,3.53,2.18,5.93,5.06,5.93,2.05,0,3.96-1.09,5.75-3.05l.22.09c-1.96,3.66-4.92,5.71-8.15,5.71Zm-2.31-12.03c7.84-.78,9.28-3.22,9.28-5.45,0-1.39-.87-2.35-2.44-2.35-2.88,0-5.49,3.4-6.84,7.8Z" fill="#e5007d"/>
    <path d="m319.54,84.89l-2,2.66-1,2.57h.13c3.53-5.32,6.75-8.63,9.46-8.63,2.13,0,3.18,1.22,3.18,2.88,0,1.57-1.13,2.96-2.66,2.96-1.22,0-2.09-.74-2.09-1.83,0-.57.31-1.09.44-1.18h.74l.26-.7h-.92c-2.14,0-4.84,2.79-8.06,7.8l-4.18,10.76h-3.88l6.19-15.91c.61-1.57.39-2.22-.78-2.83l-1.44-.74,8.19-1.61-1.57,3.79Z" fill="#e5007d"/>
    <path d="m337.68,84.89l-2,2.66-1,2.57h.13c3.53-5.32,6.75-8.63,9.46-8.63,2.13,0,3.18,1.22,3.18,2.88,0,1.57-1.13,2.96-2.66,2.96-1.22,0-2.09-.74-2.09-1.83,0-.57.31-1.09.44-1.18h.74l.26-.7h-.92c-2.14,0-4.84,2.79-8.06,7.8l-4.18,10.76h-3.88l6.19-15.91c.61-1.57.39-2.22-.78-2.83l-1.44-.74,8.19-1.61-1.57,3.79Z" fill="#e5007d"/>
    <path d="m353.71,102.58c-4.31,0-7.15-3.27-7.15-7.8,0-6.54,5.71-13.51,12.2-13.51,3.66,0,5.49,1.83,5.49,3.92,0,3.09-5.06,6.67-14.34,6.67l-.13.83h1.13c-.04.44-.09.83-.09,1.22,0,3.53,2.18,5.93,5.06,5.93,2.05,0,3.96-1.09,5.75-3.05l.22.09c-1.96,3.66-4.92,5.71-8.15,5.71Zm-2.31-12.03c7.84-.78,9.28-3.22,9.28-5.45,0-1.39-.87-2.35-2.44-2.35-2.88,0-5.49,3.4-6.84,7.8Z" fill="#e5007d"/>
    <path d="m378.47,94.65h-.13c-3.49,5.14-6.75,7.89-9.28,7.89-3.09,0-4.97-2.48-4.97-6.75,0-5.71,5.88-14.42,13.99-14.42,1.66,0,3.27.52,4.44,1.39l3.88-1.22-6.19,15.82c-.7,1.74-.57,2.53.52,2.53s2.48-1,4.75-3.36l.35.22c-3.05,4.01-5.4,5.71-7.63,5.71-1.83,0-2.75-1.13-2.44-2.92l1.66-2.22,1.05-2.66Zm-7.67,5.23c1.79,0,4.36-2.31,7.06-6.45l3.27-8.28c-.87-1.44-2.05-2.09-3.57-2.09-4.97,0-9.37,7.63-9.37,12.64,0,2.83.92,4.18,2.61,4.18Z" fill="#e5007d"/>
    <path d="m391.85,97.31c-.83,2.09-.35,2.57.48,2.57,1.22,0,2.79-1.26,4.75-3.36l.35.22c-2.88,3.83-5.19,5.71-7.58,5.71-2.22,0-3.22-1.79-1.87-5.23l8.45-21.31c.61-1.57.39-2.22-.78-2.83l-1.44-.74,8.06-1.39-10.41,26.36Z" fill="#e5007d"/>
    <path d="m403.53,97.35c-.83,2-.35,2.53.48,2.53,1.22,0,2.79-1.31,4.75-3.36l.35.22c-2.88,3.83-5.23,5.71-7.63,5.71-2.22,0-3.22-1.79-1.83-5.23l4.45-10.94c.65-1.57.39-2.22-.79-2.83l-1.44-.74,8.19-1.61-6.54,16.25Zm5.8-24.97h4.36l-1.83,4.31h-4.36l1.83-4.31Z" fill="#e5007d"/>
    <path d="m415.91,96.87c-.65,1.7.17,2.48,1.35,2.48s2.57-.83,4.58-3.01l.17.09c-1.87,3.27-4.23,5.97-7.06,5.97s-4.4-2.09-2.88-6.06l4.97-12.94h-4.05c2.7-1.39,7.84-4.79,11.42-8.98l-2.7,7.28h5.75l-.65,1.7h-7.1l-.26.78h1.35l-4.88,12.68Z" fill="#e5007d"/>
    <path d="m418.61,109.42c0-1.26.96-2.48,2.35-2.48,1.22,0,2.14.83,2.14,2.05,0,.35-.09.7-.17.87h-.78l-.22.65c2.57.22,5.71-1.57,9.81-5.84-.35-7.28-1.53-16.43-2.18-19.04-.31-1.22-.7-1.7-2.57-2.83l5.88-1.61c1.09,4.4,2.35,12.55,2.44,18.74l-1.05,1.18.09.83c6.49-6.93,8.98-13.9,8.85-16.91h-1.61c-.22-.35-.35-.83-.35-1.35,0-1.18.87-2.35,2.53-2.35,1.52,0,2.31,1.05,2.31,3.05,0,3.36-2.7,9.94-9.76,18-6.23,7.15-10.46,9.85-14.47,9.85-2.13,0-3.22-1.31-3.22-2.79Z" fill="#e5007d"/>
  </g>
  <line x1="255.35" y1="17.02" x2="255.35" y2="17.62" fill="none" stroke="#fff" stroke-miterlimit="10" stroke-width=".8"/>
  <line x1="34.61" y1="38.57" x2="34.61" y2="173.53" fill="none" stroke="#e5007d" stroke-miterlimit="10" stroke-width=".8"/>
  <line x1="17.4" y1="65.03" x2="472.94" y2="65.03" fill="none" stroke="#e5007d" stroke-miterlimit="10" stroke-width=".8"/>
  <g clip-path="url(#clippath)" fill="none">
    <path d="m42.49,119.22c-.42.43-2.26,1.33-6.96,1.33v6.61c2.73,0,6.01.59,6.96,1.2v3.04h399.91v-2.91c.42-.43,2.26-1.33,6.96-1.33v-6.61c-2.73,0-6.01-.59-6.96-1.2v-3.03H42.49v2.91Z" fill="none" stroke="#e5007d" stroke-width="1.43"/>
    <path d="m46.36,119.61s0,4.24-10.82,4.24c0,0,10.82,0,10.82,4.24h392.18s0-4.24,10.82-4.24c0,0-10.82,0-10.82-4.24H46.36Z" fill="none" stroke="#e5007d" stroke-width="2.86"/>
    <path d="m48.93,122.92c-1.62,2.04-5.25,4.24-13.39,4.24v-6.61c5.46,0,11.2,1.17,13.57,4.24h386.86c1.62-2.04,5.25-4.24,13.39-4.24v6.61c-5.46,0-11.2-1.17-13.57-4.24H48.93Z" fill="none" stroke="#e5007d" stroke-width="1.43"/>
  </g>
</svg>