<?xml version="1.0" encoding="UTF-8"?>
<svg id="Ebene_1" data-name="Ebene 1" xmlns="http://www.w3.org/2000/svg" width="500" height="200" viewBox="0 0 500 200">
  <g>
    <path d="m36.8,103.34c0-9.58,7.71-19.88,18.97-19.88,5.56,0,9.3,3.15,10.12,6.38l.5-1.32c-.18-.59-.77-1.5-1-1.78l4.29-1.78-3.92,10.9h-1.55l-.05-2.23c-.09-4.61-3.15-8.03-7.98-8.03-8.16,0-14.36,10.31-14.36,18.29,0,5.24,2.74,9.76,8.39,9.76,2.55,0,5.84-1.28,8.62-3.24l.55-1.28-2.19,1.28,2.05-5.06c.87-2.1.09-3.15-2.28-3.37l-1-.09.5-1.32h12.59l-.5,1.32-1.05.09c-1.96.18-3.01,1.28-3.83,3.37l-4.2,10.85-2.1-2.83c-2.65,1.6-5.75,2.64-8.66,2.6-7.16-.05-11.9-6.02-11.9-12.63Z" fill="#e5007d"/>
    <path d="m77.98,116.16c-4.51,0-7.48-3.42-7.48-8.16,0-6.84,5.97-14.14,12.77-14.14,3.83,0,5.75,1.92,5.75,4.1,0,3.24-5.29,6.98-15,6.98l-.14.87h1.19c-.05.46-.09.87-.09,1.28,0,3.69,2.28,6.2,5.29,6.2,2.14,0,4.15-1.14,6.02-3.19l.23.09c-2.05,3.83-5.15,5.97-8.53,5.97Zm-2.42-12.59c8.21-.82,9.71-3.37,9.71-5.7,0-1.46-.91-2.46-2.55-2.46-3.01,0-5.75,3.56-7.16,8.16Z" fill="#e5007d"/>
    <path d="m106.76,113.33c1.28,0,2.92-1.37,4.97-3.51l.36.23c-3.01,3.97-5.43,5.97-7.89,5.97-2.33,0-3.38-1.92-1.92-5.47l4.56-11.17c.87-2.1.05-2.87-1.28-2.87-2.42,0-5.7,2.87-9.3,8.16l-4.29,11.08h-4.06l6.48-16.64c.64-1.64.41-2.33-.82-2.96l-1.5-.77,8.57-1.69-1.82,4.42-1.69,2.14-1,2.55h.09c3.92-5.61,7.84-8.89,10.94-8.89,3.88,0,5.11,2.51,3.42,6.48l-4.33,10.31c-.87,2.1-.36,2.65.5,2.65Z" fill="#e5007d"/>
    <path d="m121.45,116.16c-4.51,0-7.48-3.42-7.48-8.16,0-6.84,5.97-14.14,12.77-14.14,3.83,0,5.75,1.92,5.75,4.1,0,3.24-5.29,6.98-15,6.98l-.14.87h1.19c-.05.46-.09.87-.09,1.28,0,3.69,2.28,6.2,5.29,6.2,2.14,0,4.15-1.14,6.02-3.19l.23.09c-2.05,3.83-5.15,5.97-8.53,5.97Zm-2.42-12.59c8.21-.82,9.71-3.37,9.71-5.7,0-1.46-.91-2.46-2.55-2.46-3.01,0-5.75,3.56-7.16,8.16Z" fill="#e5007d"/>
    <path d="m142.47,97.64l-2.1,2.78-1.05,2.69h.14c3.69-5.56,7.07-9.03,9.9-9.03,2.23,0,3.33,1.28,3.33,3.01,0,1.64-1.19,3.1-2.78,3.1-1.28,0-2.19-.77-2.19-1.92,0-.59.32-1.14.46-1.23h.78l.27-.73h-.96c-2.23,0-5.06,2.92-8.44,8.16l-4.38,11.26h-4.06l6.48-16.64c.64-1.64.41-2.33-.82-2.96l-1.5-.77,8.57-1.69-1.64,3.97Z" fill="#e5007d"/>
    <path d="m166.32,107.86h-.14c-3.65,5.38-7.07,8.25-9.71,8.25-3.24,0-5.2-2.6-5.2-7.07,0-5.97,6.16-15.09,14.64-15.09,1.73,0,3.42.55,4.65,1.46l4.06-1.28-6.48,16.55c-.73,1.82-.59,2.65.55,2.65s2.6-1.05,4.97-3.51l.37.23c-3.19,4.2-5.65,5.97-7.98,5.97-1.92,0-2.87-1.19-2.55-3.05l1.73-2.33,1.09-2.78Zm-8.03,5.47c1.87,0,4.56-2.42,7.39-6.75l3.42-8.66c-.91-1.5-2.14-2.19-3.74-2.19-5.2,0-9.8,7.98-9.8,13.22,0,2.96.96,4.38,2.74,4.38Z" fill="#e5007d"/>
    <path d="m180.97,110.18c-.68,1.78.18,2.6,1.41,2.6s2.69-.87,4.79-3.15l.18.09c-1.96,3.42-4.42,6.25-7.39,6.25s-4.61-2.19-3.01-6.34l5.2-13.54h-4.24c2.83-1.46,8.21-5.02,11.95-9.39l-2.83,7.62h6.02l-.68,1.78h-7.43l-.27.82h1.41l-5.11,13.27Z" fill="#e5007d"/>
    <path d="m198.3,116.16c-4.51,0-7.48-3.42-7.48-8.16,0-6.84,5.97-14.14,12.77-14.14,3.83,0,5.75,1.92,5.75,4.1,0,3.24-5.29,6.98-15,6.98l-.14.87h1.19c-.05.46-.09.87-.09,1.28,0,3.69,2.28,6.2,5.29,6.2,2.14,0,4.15-1.14,6.02-3.19l.23.09c-2.05,3.83-5.15,5.97-8.53,5.97Zm-2.42-12.59c8.21-.82,9.71-3.37,9.71-5.7,0-1.46-.91-2.46-2.55-2.46-3.01,0-5.75,3.56-7.16,8.16Z" fill="#e5007d"/>
    <path d="m228.67,101.15h1.64l-3.78,9.8c-.77,2.14-.23,3.15,2.1,3.37l1,.09-.5,1.32h-13.13l.5-1.32,1.05-.09c2.01-.18,3.47-1.28,4.24-3.37l8.57-22.34c.77-2.14.14-3.15-2.1-3.37l-.96-.09.5-1.32h13.13l-.5,1.32-1.09.09c-2.1.18-3.47,1.28-4.24,3.37l-3.83,10.03h14.68l3.83-10.03c.78-2.14.14-3.15-2.1-3.37l-.96-.09.5-1.32h13.13l-.5,1.32-1.05.09c-2.1.18-3.51,1.28-4.29,3.37l-8.57,22.34c-.77,2.14-.18,3.15,2.14,3.37l.96.09-.5,1.32h-13.13l.5-1.32,1.05-.09c2.01-.18,3.47-1.28,4.24-3.37l3.78-9.8h1.6l.32-.91h-17.92l-.32.91Z" fill="#e5007d"/>
    <path d="m246.83,123.32c0-1.32,1-2.6,2.46-2.6,1.28,0,2.23.87,2.23,2.14,0,.37-.09.73-.18.91h-.82l-.23.68c2.69.23,5.97-1.64,10.26-6.11-.37-7.62-1.6-17.19-2.28-19.93-.32-1.28-.73-1.78-2.69-2.96l6.16-1.69c1.14,4.61,2.46,13.13,2.55,19.61l-1.09,1.23.09.87c6.79-7.25,9.39-14.55,9.26-17.69h-1.69c-.23-.36-.37-.87-.37-1.41,0-1.23.91-2.46,2.65-2.46,1.6,0,2.42,1.09,2.42,3.19,0,3.51-2.83,10.4-10.21,18.83-6.52,7.48-10.95,10.31-15.14,10.31-2.23,0-3.37-1.37-3.37-2.92Z" fill="#e5007d"/>
    <path d="m280.57,113.97l-3.06,7.93c-.68,1.87-.32,2.87,1.64,3.06l.96.09-.46,1.19h-11.17l.46-1.19.91-.09c1.78-.18,2.87-1.23,3.56-3.06l8.76-22.8c.64-1.64.41-2.33-.82-2.96l-1.5-.77,8.53-1.69-1.09,2.83-2.28,3.15-1.28,3.19h.18c3.15-5.2,7.02-8.89,10.35-8.89,3.6,0,5.79,2.78,5.79,6.89,0,7.34-6.52,14.96-13.41,14.96-2.19,0-4.42-.68-6.07-1.82Zm3.47-8.94l-2.55,6.61c1.09,1.41,2.96,2.33,4.88,2.33,5.29,0,9.39-7.93,9.39-13.5,0-2.78-1.37-3.83-2.74-3.83-2.1,0-5.56,2.42-8.98,8.39Z" fill="#e5007d"/>
    <path d="m309.53,116.16c-4.51,0-7.48-3.42-7.48-8.16,0-6.84,5.97-14.14,12.77-14.14,3.83,0,5.75,1.92,5.75,4.1,0,3.24-5.29,6.98-15,6.98l-.14.87h1.19c-.05.46-.09.87-.09,1.28,0,3.69,2.28,6.2,5.29,6.2,2.14,0,4.15-1.14,6.02-3.19l.23.09c-2.05,3.83-5.15,5.97-8.53,5.97Zm-2.42-12.59c8.21-.82,9.71-3.37,9.71-5.7,0-1.46-.91-2.46-2.55-2.46-3.01,0-5.75,3.56-7.16,8.16Z" fill="#e5007d"/>
    <path d="m330.56,97.64l-2.1,2.78-1.05,2.69h.14c3.69-5.56,7.07-9.03,9.9-9.03,2.23,0,3.33,1.28,3.33,3.01,0,1.64-1.19,3.1-2.78,3.1-1.28,0-2.19-.77-2.19-1.92,0-.59.32-1.14.46-1.23h.77l.27-.73h-.96c-2.23,0-5.06,2.92-8.44,8.16l-4.38,11.26h-4.06l6.47-16.64c.64-1.64.41-2.33-.82-2.96l-1.5-.77,8.57-1.69-1.64,3.97Z" fill="#e5007d"/>
    <path d="m349.53,97.64l-2.1,2.78-1.05,2.69h.14c3.69-5.56,7.07-9.03,9.9-9.03,2.23,0,3.33,1.28,3.33,3.01,0,1.64-1.19,3.1-2.78,3.1-1.28,0-2.19-.77-2.19-1.92,0-.59.32-1.14.46-1.23h.77l.27-.73h-.96c-2.23,0-5.06,2.92-8.44,8.16l-4.38,11.26h-4.06l6.47-16.64c.64-1.64.41-2.33-.82-2.96l-1.5-.77,8.57-1.69-1.64,3.97Z" fill="#e5007d"/>
    <path d="m366.32,116.16c-4.52,0-7.48-3.42-7.48-8.16,0-6.84,5.97-14.14,12.77-14.14,3.83,0,5.75,1.92,5.75,4.1,0,3.24-5.29,6.98-15,6.98l-.14.87h1.19c-.05.46-.09.87-.09,1.28,0,3.69,2.28,6.2,5.29,6.2,2.14,0,4.15-1.14,6.02-3.19l.23.09c-2.05,3.83-5.15,5.97-8.53,5.97Zm-2.42-12.59c8.21-.82,9.71-3.37,9.71-5.7,0-1.46-.91-2.46-2.55-2.46-3.01,0-5.75,3.56-7.16,8.16Z" fill="#e5007d"/>
    <path d="m392.22,107.86h-.14c-3.65,5.38-7.07,8.25-9.71,8.25-3.24,0-5.2-2.6-5.2-7.07,0-5.97,6.16-15.09,14.64-15.09,1.73,0,3.42.55,4.65,1.46l4.06-1.28-6.47,16.55c-.73,1.82-.59,2.65.55,2.65s2.6-1.05,4.97-3.51l.37.23c-3.19,4.2-5.66,5.97-7.98,5.97-1.92,0-2.87-1.19-2.55-3.05l1.73-2.33,1.09-2.78Zm-8.03,5.47c1.87,0,4.56-2.42,7.39-6.75l3.42-8.66c-.91-1.5-2.14-2.19-3.74-2.19-5.2,0-9.8,7.98-9.8,13.22,0,2.96.96,4.38,2.74,4.38Z" fill="#e5007d"/>
    <path d="m406.23,110.64c-.87,2.19-.36,2.69.5,2.69,1.28,0,2.92-1.32,4.97-3.51l.36.23c-3.01,4.01-5.43,5.97-7.93,5.97-2.32,0-3.37-1.87-1.96-5.47l8.85-22.3c.64-1.64.41-2.33-.82-2.96l-1.5-.78,8.44-1.46-10.9,27.59Z" fill="#e5007d"/>
    <path d="m418.45,110.69c-.87,2.1-.36,2.65.5,2.65,1.28,0,2.92-1.37,4.97-3.51l.36.23c-3.01,4.01-5.47,5.97-7.98,5.97-2.32,0-3.37-1.87-1.92-5.47l4.65-11.45c.68-1.64.41-2.33-.82-2.96l-1.5-.77,8.57-1.69-6.84,17.01Zm6.07-26.13h4.56l-1.92,4.51h-4.56l1.92-4.51Z" fill="#e5007d"/>
    <path d="m431.4,110.18c-.68,1.78.18,2.6,1.41,2.6s2.69-.87,4.79-3.15l.18.09c-1.96,3.42-4.42,6.25-7.39,6.25s-4.61-2.19-3.01-6.34l5.2-13.54h-4.24c2.83-1.46,8.21-5.02,11.95-9.39l-2.83,7.62h6.02l-.68,1.78h-7.43l-.27.82h1.41l-5.11,13.27Z" fill="#e5007d"/>
    <path d="m434.23,123.32c0-1.32,1-2.6,2.46-2.6,1.28,0,2.23.87,2.23,2.14,0,.37-.09.73-.18.91h-.82l-.23.68c2.69.23,5.97-1.64,10.26-6.11-.37-7.62-1.6-17.19-2.28-19.93-.32-1.28-.73-1.78-2.69-2.96l6.16-1.69c1.14,4.61,2.46,13.13,2.55,19.61l-1.09,1.23.09.87c6.79-7.25,9.39-14.55,9.26-17.69h-1.69c-.23-.36-.37-.87-.37-1.41,0-1.23.91-2.46,2.65-2.46,1.6,0,2.42,1.09,2.42,3.19,0,3.51-2.83,10.4-10.21,18.83-6.52,7.48-10.94,10.31-15.14,10.31-2.23,0-3.37-1.37-3.37-2.92Z" fill="#e5007d"/>
  </g>
  <line x1="255.35" y1="17.02" x2="255.35" y2="17.62" fill="none" stroke="#fff" stroke-miterlimit="10" stroke-width=".8"/>
  <rect x="12.16" y="69.11" width="475.45" height="67.04" rx="31.08" ry="31.08" fill="none" stroke="#e5007d" stroke-miterlimit="10" stroke-width=".8"/>
</svg>