<?xml version="1.0" encoding="UTF-8"?>
<svg xmlns="http://www.w3.org/2000/svg" width="1620" height="2160" xmlns:xlink="http://www.w3.org/1999/xlink" viewBox="0 0 1620 2160">
  <defs>
    <clipPath id="clippath">
      <rect x="227.25" y="557.33" width="1209.65" height="1014.73" fill="none"/>
    </clipPath>
  </defs>
  <g id="background">
    <rect x="-1.03" y="-4.89" width="1620.53" height="2164.31" fill="#e5007d"/>
  </g>
  <g id="underlay">
    <g clip-path="url(#clippath)" fill="none">
      <path d="m1436.89,620.45s-40.02-1.11-38.63-32.9l-1089.1-30.22s-1.39,31.79-41.42,30.68l-40.49,920.94s40.02,1.11,38.63,32.9l1089.11,30.21s1.39-31.79,41.42-30.68l40.49-920.94h-.01Z" fill="#e8308a"/>
    </g>
    <rect x="109.05" y="2067.51" width="1776.41" height="158.14" transform="translate(114.31 -49.49) rotate(3.02)"/>
    <rect x="-279.92" y="-81.05" width="1776.41" height="158.14" transform="translate(.38 19.58) rotate(-1.84)"/>
    <rect x="-1001.01" y="1445.14" width="1975.47" height="158.14" transform="translate(-1536.37 1464.54) rotate(-88.26)"/>
  </g>
  <g id="type">
    <g>
      <path d="m114.49,1000.77l-3.3,8.91c.99,2.31,4.95,8.25,7.59,10.89l-31.68,11.22,28.05-79.86h11.22l.66,16.83c1.98,40.92,27.06,58.74,54.12,58.74,29.37,0,50.49-21.78,50.49-45.87,0-13.86-6.93-25.08-24.42-37.29l-37.62-26.07c-18.48-12.54-26.07-28.05-26.07-48.18,0-32.67,26.07-66,71.94-66,29.04,0,54.12,13.86,63.03,41.91l3.63-9.57c-1.65-5.28-5.61-11.88-6.93-12.87l29.37-9.9-26.4,76.56h-11.88l-.33-11.55c-.99-41.25-21.12-60.06-49.5-60.06-24.09,0-42.9,17.16-42.9,40.92,0,13.2,6.6,23.1,19.14,32.01l43.56,29.37c19.47,13.2,29.04,27.06,29.04,47.52,0,35.64-28.71,73.59-84.48,73.59-29.37,0-54.78-13.2-66.33-41.25Z" fill="#fff"/>
      <path d="m228.34,1093.17c0-9.57,7.26-18.81,17.82-18.81,9.24,0,16.17,6.27,16.17,15.51,0,2.64-.66,5.28-1.32,6.6h-5.94l-1.65,4.95c19.47,1.65,43.23-11.88,74.25-44.22-2.64-55.11-11.55-124.41-16.5-144.21-2.31-9.24-5.28-12.87-19.47-21.45l44.55-12.21c8.25,33.33,17.82,95.04,18.48,141.9l-7.92,8.91.66,6.27c49.17-52.47,67.98-105.27,66.99-128.04h-12.21c-1.65-2.64-2.64-6.27-2.64-10.23,0-8.91,6.6-17.82,19.14-17.82,11.55,0,17.49,7.92,17.49,23.1,0,25.41-20.46,75.24-73.92,136.29-47.19,54.12-79.2,74.58-109.56,74.58-16.17,0-24.42-9.9-24.42-21.12Z" fill="#fff"/>
      <path d="m575.18,1020.9c9.24,0,21.12-9.9,35.97-25.41l2.64,1.65c-21.78,28.71-39.27,43.23-57.09,43.23-16.83,0-24.42-13.86-13.86-39.6l33-80.85c6.27-15.18.33-20.79-9.24-20.79-17.49,0-41.25,20.79-67.32,59.07l-31.02,80.19h-29.37l46.86-120.45c4.62-11.88,2.97-16.83-5.94-21.45l-10.89-5.61,62.04-12.21-13.2,32.01-12.21,15.51-7.26,18.48h.66c28.38-40.59,56.76-64.35,79.2-64.35,28.05,0,36.96,18.15,24.75,46.86l-31.35,74.58c-6.27,15.18-2.64,19.14,3.63,19.14Z" fill="#fff"/>
      <path d="m665.92,998.13c-4.95,12.87,1.32,18.81,10.23,18.81s19.47-6.27,34.65-22.77l1.32.66c-14.19,24.75-32.01,45.21-53.46,45.21s-33.33-15.84-21.78-45.87l37.62-98.01h-30.69c20.46-10.56,59.4-36.3,86.46-67.98l-20.46,55.11h43.56l-4.95,12.87h-53.79l-1.98,5.94h10.23l-36.96,96.03Z" fill="#fff"/>
      <path d="m861.61,1020.9c9.24,0,21.12-9.9,35.97-25.41l2.64,1.65c-21.78,28.71-39.27,43.23-57.09,43.23-16.83,0-24.42-13.86-13.86-39.6l33-80.85c6.27-15.18.33-20.79-9.24-20.79-17.49,0-41.25,20.79-67.32,59.07l-31.02,80.19h-29.37l77.55-198.99c4.62-11.88,2.97-16.83-5.94-21.45l-10.89-5.61,61.05-10.56-42.9,108.9-12.21,15.51-7.26,18.48h.66c28.38-40.59,56.76-64.35,79.2-64.35,28.05,0,36.96,18.15,24.75,46.86l-31.35,74.58c-6.27,15.18-2.64,19.14,3.63,19.14Z" fill="#fff"/>
      <path d="m971.17,1041.36c-32.67,0-54.12-24.75-54.12-59.07,0-49.5,43.23-102.3,92.4-102.3,27.72,0,41.58,13.86,41.58,29.7,0,23.43-38.28,50.49-108.57,50.49l-.99,6.27h8.58c-.33,3.3-.66,6.27-.66,9.24,0,26.73,16.5,44.88,38.28,44.88,15.51,0,30.03-8.25,43.56-23.1l1.65.66c-14.85,27.72-37.29,43.23-61.71,43.23Zm-17.49-91.08c59.4-5.94,70.29-24.42,70.29-41.25,0-10.56-6.6-17.82-18.48-17.82-21.78,0-41.58,25.74-51.81,59.07Z" fill="#fff"/>
      <path d="m1091.95,998.13c-4.95,12.87,1.32,18.81,10.23,18.81s19.47-6.27,34.65-22.77l1.32.66c-14.19,24.75-32.01,45.21-53.46,45.21s-33.33-15.84-21.78-45.87l37.62-98.01h-30.69c20.46-10.56,59.4-36.3,86.46-67.98l-20.46,55.11h43.56l-4.95,12.87h-53.79l-1.98,5.94h10.23l-36.96,96.03Z" fill="#fff"/>
      <path d="m1197.21,1001.76c-6.27,15.18-2.64,19.14,3.63,19.14,9.24,0,21.12-9.9,35.97-25.41l2.64,1.65c-21.78,29.04-39.6,43.23-57.75,43.23-16.83,0-24.42-13.53-13.86-39.6l33.66-82.83c4.95-11.88,2.97-16.83-5.94-21.45l-10.89-5.61,62.04-12.21-49.5,123.09Zm43.89-189.09h33l-13.86,32.67h-33l13.86-32.67Z" fill="#fff"/>
      <path d="m1325.58,1020.24c15.84,0,31.35-7.92,45.21-22.44l2.64.99c-15.18,27.39-37.95,42.24-62.04,42.24-33.33,0-51.81-24.42-51.81-57.42,0-44.88,36.63-102.96,87.45-102.96,28.71,0,45.87,17.16,45.87,33.99,0,13.86-9.57,21.78-17.82,21.78-9.9,0-17.82-10.89-14.85-24.09h8.25c0-11.55-7.26-18.48-21.12-18.48-33.99,0-57.09,50.82-57.09,83.82,0,26.4,12.87,42.57,35.31,42.57Z" fill="#fff"/>
      <path d="m381.46,1298.82l7.59-.66c14.85-1.32,25.08-9.24,30.69-24.42l62.04-161.7c5.61-15.51.99-22.77-15.18-24.42l-6.93-.66,3.63-9.57h75.24c62.37,0,103.62,38.94,103.62,92.07,0,75.24-70.29,138.93-153.78,138.93h-110.55l3.63-9.57Zm101.97-3.96c80.19,0,122.43-70.29,122.43-126.72,0-42.57-23.43-77.22-67.65-77.22h-26.4l-2.31,6.6h12.54l-73.59,190.74h-11.22l-2.31,6.6h48.51Z" fill="#fff"/>
      <path d="m676.15,1271.76c-6.27,15.18-2.64,19.14,3.63,19.14,9.24,0,21.12-9.9,35.97-25.41l2.64,1.65c-21.78,29.04-39.6,43.23-57.75,43.23-16.83,0-24.42-13.53-13.86-39.6l33.66-82.83c4.95-11.88,2.97-16.83-5.94-21.45l-10.89-5.61,62.04-12.21-49.5,123.09Zm43.89-189.09h33l-13.86,32.67h-33l13.86-32.67Z" fill="#fff"/>
      <path d="m724.98,1274.73c0-11.88,9.24-18.48,16.5-18.48,7.92,0,14.19,6.27,14.19,16.5,0,1.65-.33,3.3-.66,5.28h-8.25c0,12.54,8.25,21.45,26.4,21.45,20.13,0,30.36-13.2,30.36-26.73,0-8.91-5.61-16.17-13.53-23.76l-18.48-18.48c-11.55-11.55-18.15-22.77-18.15-35.64,0-23.1,18.81-44.55,50.82-44.55,27.72,0,47.85,15.84,47.85,35.97,0,10.89-5.94,18.15-16.17,18.15-8.25,0-14.85-6.27-14.85-16.83,0-1.65.33-3.3.66-5.28h8.25c0-12.21-10.23-19.14-25.08-19.14-16.5,0-26.07,11.22-26.07,22.77,0,6.93,3.3,11.55,7.59,15.84l27.72,28.38c9.9,9.9,16.83,21.78,16.83,35.31,0,24.75-22.44,46.2-57.42,46.2-26.07,0-48.51-15.51-48.51-36.96Z" fill="#fff"/>
      <path d="m898.23,1268.13c-4.95,12.87,1.32,18.81,10.23,18.81s19.47-6.27,34.65-22.77l1.32.66c-14.19,24.75-32.01,45.21-53.46,45.21s-33.33-15.84-21.78-45.87l37.62-98.01h-30.69c20.46-10.56,59.4-36.3,86.46-67.98l-20.46,55.11h43.56l-4.95,12.87h-53.79l-1.98,5.94h10.23l-36.96,96.03Z" fill="#fff"/>
      <path d="m1042.77,1177.38l-15.18,20.13-7.59,19.47h.99c26.73-40.26,51.15-65.34,71.61-65.34,16.17,0,24.09,9.24,24.09,21.78,0,11.88-8.58,22.44-20.13,22.44-9.24,0-15.84-5.61-15.84-13.86,0-4.29,2.31-8.25,3.3-8.91h5.61l1.98-5.28h-6.93c-16.17,0-36.63,21.12-61.05,59.07l-31.68,81.51h-29.37l46.86-120.45c4.62-11.88,2.97-16.83-5.94-21.45l-10.89-5.61,62.04-12.21-11.88,28.71Z" fill="#fff"/>
      <path d="m1211.07,1266.81l7.59-19.47h-.99c-27.39,39.93-53.13,64.68-74.58,64.68-26.4,0-35.97-21.78-22.77-52.8l30.36-71.28c4.95-11.88,2.97-16.83-5.94-21.45l-10.89-5.61,62.04-12.21-48.51,117.15c-8.58,20.46-1.65,27.39,7.26,27.39,15.84,0,36.63-20.46,61.05-56.76l32.01-83.16h30.03l-46.86,118.47c-5.94,15.18-2.64,19.14,3.63,19.14,9.24,0,21.12-9.9,35.97-25.41l2.64,1.65c-21.78,28.71-39.27,43.23-57.09,43.23-13.86,0-21.45-9.24-17.82-26.4l12.87-17.16Z" fill="#fff"/>
      <path d="m1277.07,1274.73c0-11.88,9.24-18.48,16.5-18.48,7.92,0,14.19,6.27,14.19,16.5,0,1.65-.33,3.3-.66,5.28h-8.25c0,12.54,8.25,21.45,26.4,21.45,20.13,0,30.36-13.2,30.36-26.73,0-8.91-5.61-16.17-13.53-23.76l-18.48-18.48c-11.55-11.55-18.15-22.77-18.15-35.64,0-23.1,18.81-44.55,50.82-44.55,27.72,0,47.85,15.84,47.85,35.97,0,10.89-5.94,18.15-16.17,18.15-8.25,0-14.85-6.27-14.85-16.83,0-1.65.33-3.3.66-5.28h8.25c0-12.21-10.23-19.14-25.08-19.14-16.5,0-26.07,11.22-26.07,22.77,0,6.93,3.3,11.55,7.59,15.84l27.72,28.38c9.9,9.9,16.83,21.78,16.83,35.31,0,24.75-22.44,46.2-57.42,46.2-26.07,0-48.51-15.51-48.51-36.96Z" fill="#fff"/>
      <path d="m1450.32,1268.13c-4.95,12.87,1.32,18.81,10.23,18.81s19.47-6.27,34.65-22.77l1.32.66c-14.19,24.75-32.01,45.21-53.46,45.21s-33.33-15.84-21.78-45.87l37.62-98.01h-30.69c20.46-10.56,59.4-36.3,86.46-67.98l-20.46,55.11h43.56l-4.95,12.87h-53.79l-1.98,5.94h10.23l-36.96,96.03Z" fill="#fff"/>
    </g>
  </g>
  <g id="overlay_lines">
    <line x1=".06" y1="1330.66" x2="1620.43" y2="1330.66" fill="none" stroke="#fff" stroke-miterlimit="10" stroke-width="2"/>
    <line x1="175" y1="2168.43" x2="175" y2="461.59" fill="none" stroke="#fff" stroke-miterlimit="10" stroke-width="2"/>
    <line x1="175.19" y1="1344.49" x2="1619.86" y2="1344.49" fill="none" stroke="#fff" stroke-miterlimit="10" stroke-width="2"/>
    <line x1="-157.92" y1="937.07" x2="1286.75" y2="937.07" fill="none" stroke="#fff" stroke-miterlimit="10" stroke-width="2"/>
    <line x1="159.16" y1="2632.97" x2="159.16" y2="937.66" fill="none" stroke="#fff" stroke-miterlimit="10" stroke-width="2"/>
    <line x1="175.39" y1="503.66" x2="1795.76" y2="503.66" fill="none" stroke="#fff" stroke-miterlimit="10" stroke-width="2"/>
    <line x1="-696.66" y1="528.83" x2="923.72" y2="528.83" fill="none" stroke="#fff" stroke-miterlimit="10" stroke-width="2"/>
    <line x1="199.63" y1="1470.48" x2="199.63" y2="1190.25" fill="none" stroke="#fff" stroke-miterlimit="10" stroke-width="2"/>
    <line x1="923.74" y1="1485.15" x2="923.74" y2="502.95" fill="none" stroke="#fff" stroke-miterlimit="10" stroke-width="2"/>
    <line x1="175.22" y1="1470.18" x2="340.6" y2="1470.18" fill="none" stroke="#fff" stroke-miterlimit="10" stroke-width="2"/>
    <line x1="-25.16" y1="1485.24" x2="1460.23" y2="1485.24" fill="none" stroke="#fff" stroke-miterlimit="10" stroke-width="2"/>
    <line x1="1529.28" y1="1318.44" x2="1529.28" y2="-388.4" fill="none" stroke="#fff" stroke-miterlimit="10" stroke-width="2"/>
    <line x1="957.42" y1="1307.86" x2="1718.45" y2="1307.86" fill="none" stroke="#fff" stroke-miterlimit="10" stroke-width="2"/>
    <line x1="695.24" y1="1317.55" x2="695.24" y2="1648.46" fill="none" stroke="#fff" stroke-miterlimit="10" stroke-width="2"/>
  </g>
  <g id="Explore">
    <g>
      <path d="m826.54,1386.84c12.76,0,24.31,7.66,25.3,27.05l.11,3.98h-42.13c.88,10.82,6.82,17.15,16.72,17.15,6.16,0,11.77-3.27,14.41-8.88l10.12.72c-3.41,10.21-13.31,16.54-24.53,16.54-16.17,0-26.73-11.02-26.73-28.28s10.56-28.28,26.73-28.28Zm15.07,23.28c-1.65-11.23-8.14-14.91-15.07-14.91-9.13,0-14.96,5.51-16.5,14.91h31.57Z" fill="#fff"/>
      <path d="m907.84,1388.06l-20.13,26.44,21.12,27.67h-11.55l-15.51-20.93-15.62,20.93h-11.55l21.34-27.77-20.24-26.34h11.55l14.52,19.6,14.41-19.6h11.66Z" fill="#fff"/>
      <path d="m920.6,1388.06h8.58l.33,7.86c3.19-5.82,9.35-9.09,17.82-9.09,17.49,0,25.19,13.48,25.19,28.28s-7.7,28.28-25.19,28.28c-8.03,0-14.08-2.86-17.27-8.47v22.56h-9.46v-69.42Zm25.08,46.96c11.99,0,16.72-9.8,16.72-19.91s-4.73-19.91-16.72-19.91-16.72,9.9-16.72,19.91,4.84,19.91,16.72,19.91Z" fill="#fff"/>
      <path d="m993.76,1369.69v61.46c0,2.25,1.1,3.27,3.52,3.27h5.06v7.76h-6.6c-6.82,0-11.44-4.29-11.44-10.62v-61.87h9.46Z" fill="#fff"/>
      <path d="m1008.62,1415.12c0-17.25,10.56-28.28,26.73-28.28s26.73,11.03,26.73,28.28-10.56,28.28-26.73,28.28-26.73-11.02-26.73-28.28Zm26.73,19.91c10.67,0,16.83-7.45,16.83-19.91s-6.16-19.91-16.83-19.91-16.83,7.45-16.83,19.91,6.16,19.91,16.83,19.91Z" fill="#fff"/>
      <path d="m1081.67,1388.06l.33,9.7c1.87-6.64,6.16-9.7,13.75-9.7h5.72v7.76h-5.72c-8.91,0-12.98,4.8-12.98,14.09v32.26h-9.46v-54.11h8.36Z" fill="#fff"/>
      <path d="m1131.95,1386.84c12.76,0,24.31,7.66,25.3,27.05l.11,3.98h-42.13c.88,10.82,6.82,17.15,16.72,17.15,6.16,0,11.77-3.27,14.41-8.88l10.12.72c-3.41,10.21-13.31,16.54-24.53,16.54-16.17,0-26.73-11.02-26.73-28.28s10.56-28.28,26.73-28.28Zm15.07,23.28c-1.65-11.23-8.14-14.91-15.07-14.91-9.13,0-14.96,5.51-16.5,14.91h31.57Z" fill="#fff"/>
    </g>
  </g>
  <g id="overlay_whitebox">
    <rect x="725.39" y="1368.85" width="670.08" height="90.03" fill="none" stroke="#fff" stroke-miterlimit="10" stroke-width="2"/>
  </g>
  <g id="overlay_box">
    <rect x="688.67" y="1458.34" width="574.7" height="8.38" fill="#fff"/>
    <rect x="4.36" y="1176.83" width="298.95" height="8.38" transform="translate(-1027.18 1334.85) rotate(-90)" fill="#fff"/>
  </g>
  <g id="overlay_circle">
    <circle cx="807.36" cy="1071.14" r="773.29" fill="none" stroke="#fff" stroke-miterlimit="10" stroke-width="2"/>
  </g>
  <g id="overlay_dots">
    <circle cx="925.91" cy="619.58" r="25.7" fill="#e5007d" stroke="#fff" stroke-miterlimit="10" stroke-width="2"/>
    <circle cx="168.68" cy="1857.65" r="25.7" fill="#e5007d" stroke="#fff" stroke-miterlimit="10" stroke-width="2"/>
    <circle cx="1528.83" cy="1343.82" r="25.7" fill="#e5007d" stroke="#fff" stroke-miterlimit="10" stroke-width="2"/>
  </g>
</svg>
