<svg height="2000.98" viewBox="0 0 2096.83 2000.98" width="2096.83" xmlns="http://www.w3.org/2000/svg"><g stroke="#e5007d" stroke-miterlimit="10" stroke-width=".8"><g fill="none"><path d="m104.71 13.94v1931.82"/><path d="m131.53 16.67v1931.82"/><path d="m1017.08 21.05v1058.43"/><path d="m47.4 18.1v1939.64"/><path d="m131.91 1079.68h966.9"/><path d="m894.77 69.3h-789.41"/><path d="m558.07 1079.87v860.24"/><path d="m558.07 0v480.75"/><path d="m131.48 463.52h885.72"/><path d="m860.15 21.84v1033.89"/><path d="m216.01 1904.3h1034.59"/><path d="m988.92 463.43v1537.55"/><path d="m558.13 1866.18h1537.55"/><path d="m559.28 1108.91h1537.55"/><path d="m860.06 1055.66h403.9"/><path d="m216.42 1353.53v643.16"/><path d="m0 99.86h1202.88"/><circle cx="546.57" cy="979.9" r="499"/></g><circle cx="988.74" cy="1787.78" r="13.06"/><circle cx="860.32" cy="847.44" r="13.06"/><circle cx="132.34" cy="259.6" r="13.06"/><circle cx="131.68" cy="486.12" r="13.06"/><circle cx="908.35" cy="69.86" r="13.06"/></g></svg>