<?xml version="1.0" encoding="UTF-8"?>
<svg id="unerdlay_blackboxes" xmlns="http://www.w3.org/2000/svg" width="1080" height="1920" xmlns:xlink="http://www.w3.org/1999/xlink" viewBox="0 0 1080 1920">
  <defs>
    <clipPath id="clippath">
      <rect x="117.69" y="412.21" width="418.22" height="23.43" fill="none"/>
    </clipPath>
    <clipPath id="clippath-1">
      <rect x="199.53" y="1785.94" width="339.5" height="23.43" fill="none"/>
    </clipPath>
    <clipPath id="clippath-2">
      <rect x="542.43" y="77.25" width="296.46" height="23.43" fill="none"/>
    </clipPath>
    <clipPath id="clippath-3">
      <rect x="-106.24" y="480.41" width="1264.22" height="782.42" transform="translate(-368.3 1358.17) rotate(-87.45)" fill="none"/>
    </clipPath>
  </defs>
  <rect x="970.52" y="1084.69" width="109.73" height="378"/>
  <rect x="-5.74" y="1541.79" width="92.08" height="378"/>
  <rect x="-4.59" y="44.49" width="847.18" height="30.51"/>
  <rect x="970.67" y="438.74" width="28.38" height="645.67"/>
  <rect x="539.48" y="1809.51" width="329.01" height="31.69"/>
  <g clip-path="url(#clippath)" fill="none">
    <polygon points="118.33 417.79 118.33 430.07 118.33 434.85 122.15 434.85 531.45 434.85 535.28 434.85 535.28 430.07 535.28 417.79 535.28 413.01 531.45 413.01 122.15 413.01 118.33 413.01 118.33 417.79" fill="none" stroke="#fff" stroke-width="1.43"/>
    <rect x="122.15" y="417.79" width="409.31" height="12.27" fill="none" stroke="#fff" stroke-width="2.86"/>
  </g>
  <rect x="125.97" y="422.57" width="401.66" height="2.71" fill="none" stroke="#fff" stroke-width="1.43"/>
  <g clip-path="url(#clippath-1)" fill="none">
    <polygon points="200.05 1791.52 200.05 1803.8 200.05 1808.58 203.15 1808.58 535.41 1808.58 538.51 1808.58 538.51 1803.8 538.51 1791.52 538.51 1786.74 535.41 1786.74 203.15 1786.74 200.05 1786.74 200.05 1791.52" fill="none" stroke="#fff" stroke-width="1.43"/>
    <rect x="203.15" y="1791.52" width="332.26" height="12.27" fill="none" stroke="#fff" stroke-width="2.86"/>
  </g>
  <g clip-path="url(#clippath-2)" fill="none">
    <polygon points="542.88 82.83 542.88 95.1 542.88 99.88 545.59 99.88 835.72 99.88 838.43 99.88 838.43 95.1 838.43 82.83 838.43 78.05 835.72 78.05 545.59 78.05 542.88 78.05 542.88 82.83" fill="none" stroke="#fff" stroke-width="1.43"/>
    <rect x="545.59" y="82.83" width="290.14" height="12.27" fill="none" stroke="#fff" stroke-width="2.86"/>
  </g>
  <g clip-path="url(#clippath-3)" fill="none">
    <path d="m248.23,226.51s-3.44,43.18-46.62,39.75l-91.69,1151.81s43.18,3.44,39.75,46.62l653.84,52.05s3.44-43.18,46.62-39.75l91.69-1151.81s-43.18-3.44-39.75-46.62l-653.85-52.05Z" fill="#ed4da4"/>
  </g>
</svg>