<svg height="1920" viewBox="0 0 1080 1920" width="1080" xmlns="http://www.w3.org/2000/svg"><g stroke="#e5007d" stroke-miterlimit="10" stroke-width=".8"><g fill="none"><path d="m86.64-10.45v1931.81"/><path d="m113.45-7.73v1931.82"/><path d="m999-3.35v1058.43"/><path d="m29.33-6.3v1939.64"/><path d="m113.84 1055.28h966.9"/><path d="m876.7 44.9h-789.41"/><path d="m540 1055.47v860.24"/><path d="m540-24.4v480.75"/><path d="m113.4 439.12h885.73"/><path d="m842.08-2.56v1033.89"/><path d="m197.94 1879.9h1034.59"/><path d="m970.85 439.03v1537.55"/><path d="m540.06 1841.78h1537.55"/><path d="m541.21 1084.52h1537.55"/><path d="m841.99 1031.26h403.9"/><path d="m198.35 1329.13v643.16"/><path d="m-18.07 75.46h1202.88"/><circle cx="528.5" cy="955.5" r="499"/></g><circle cx="970.67" cy="1763.38" fill="#fff" r="13.06"/><circle cx="233.77" cy="1880.15" fill="#fff" r="13.06"/><circle cx="114.27" cy="235.2" fill="#fff" r="13.06"/><circle cx="113.61" cy="461.72" fill="#fff" r="13.06"/><circle cx="890.28" cy="45.46" fill="#fff" r="13.06"/></g></svg>