<?xml version="1.0" encoding="UTF-8"?>
<svg id="Ebene_1" data-name="Ebene 1" xmlns="http://www.w3.org/2000/svg" width="500" height="200" viewBox="0 0 500 200">
  <path d="m44.7,104.1c0-18.28,24.15-33.33,55.15-35.23-2.18-.13-4.39-.2-6.63-.2-34.12,0-61.78,15.86-61.78,35.43s27.66,35.43,61.78,35.43c2.24,0,4.45-.07,6.63-.2-31-1.9-55.15-16.95-55.15-35.23Z" fill="#e5007d"/>
  <path d="m450.67,104.1c0-18.28-24.15-33.33-55.15-35.23,2.18-.13,4.39-.2,6.63-.2,34.12,0,61.78,15.86,61.78,35.43,0,19.57-27.66,35.43-61.78,35.43-2.24,0-4.45-.07-6.63-.2,31-1.9,55.15-16.95,55.15-35.23Z" fill="#e5007d"/>
  <line x1="283.02" y1="17.02" x2="283.02" y2="17.62" fill="none" stroke="#fff" stroke-miterlimit="10" stroke-width=".8"/>
  <line x1="92.36" y1="49.02" x2="92.36" y2="183.98" fill="none" stroke="#e5007d" stroke-miterlimit="10" stroke-width=".8"/>
  <line x1="37" y1="117.56" x2="246.71" y2="117.56" fill="none" stroke="#e5007d" stroke-miterlimit="10" stroke-width=".8"/>
  <g>
    <path d="m69.6,115.59l.44-1.16.92-.08c1.8-.16,3.04-1.12,3.72-2.96l7.52-19.6c.68-1.88.12-2.76-1.84-2.96l-.84-.08.44-1.16h11.72l-.44,1.16-.96.08c-1.92.16-3.24,1.12-3.92,2.96l-8.2,21.36h-1.36l-.28.8h8.88c3.2,0,5.88-1.76,8.44-5.72l1.68-2.6h1.28l-4.48,9.96h-22.72Z" fill="#e5007d"/>
    <path d="m116,103.51c0,6.52-5.48,12.48-11.2,12.48-4.24,0-6.56-3.2-6.56-7.16,0-6.52,5.44-12.44,11.16-12.44,4.28,0,6.6,3.16,6.6,7.12Zm-3.68-1.2c0-2.68-1.08-4.24-3.2-4.24-4.36,0-7.2,7.76-7.2,11.96,0,2.72,1.08,4.28,3.16,4.28,4.4,0,7.24-7.8,7.24-12Z" fill="#e5007d"/>
    <path d="m130.8,108.67h-.12c-3.2,4.72-6.2,7.24-8.52,7.24-2.84,0-4.56-2.28-4.56-6.2,0-5.24,5.4-13.24,12.84-13.24,1.52,0,3,.48,4.08,1.28l3.56-1.12-5.68,14.52c-.64,1.6-.52,2.32.48,2.32s2.28-.92,4.36-3.08l.32.2c-2.8,3.68-4.96,5.24-7,5.24-1.68,0-2.52-1.04-2.24-2.68l1.52-2.04.96-2.44Zm-7.04,4.8c1.64,0,4-2.12,6.48-5.92l3-7.6c-.8-1.32-1.88-1.92-3.28-1.92-4.56,0-8.6,7-8.6,11.6,0,2.6.84,3.84,2.4,3.84Z" fill="#e5007d"/>
    <path d="m157.84,88.88l-1.32-.68,7.4-1.28-9.52,24.24c-.64,1.6-.52,2.32.48,2.32s2.28-.92,4.36-3.08l.32.2c-2.8,3.68-4.96,5.24-7,5.24-1.68,0-2.52-1.04-2.24-2.68l1.52-2,1.04-2.64h-.12c-3.24,4.88-6.36,7.4-8.84,7.4-3.08,0-4.96-2.32-4.96-6.12,0-5.32,4.96-13.36,12.44-13.36,1.76,0,3.4.64,4.52,1.68l2.64-6.64c.56-1.44.36-2.04-.72-2.6Zm-12.32,24.6c1.72,0,4.2-2.16,6.76-6.12l2.76-6.92c-.84-1.64-2-2.4-3.56-2.4-4.84,0-8.76,7.48-8.76,11.8,0,2.48,1,3.64,2.8,3.64Z" fill="#e5007d"/>
    <path d="m165.04,111.15c-.76,1.84-.32,2.32.44,2.32,1.12,0,2.56-1.2,4.36-3.08l.32.2c-2.64,3.52-4.8,5.24-7,5.24-2.04,0-2.96-1.64-1.68-4.8l4.08-10.04c.6-1.44.36-2.04-.72-2.6l-1.32-.68,7.52-1.48-6,14.92Zm5.32-22.92h4l-1.68,3.96h-4l1.68-3.96Z" fill="#e5007d"/>
    <path d="m187.4,113.47c1.12,0,2.56-1.2,4.36-3.08l.32.2c-2.64,3.48-4.76,5.24-6.92,5.24-2.04,0-2.96-1.68-1.68-4.8l4-9.8c.76-1.84.04-2.52-1.12-2.52-2.12,0-5,2.52-8.16,7.16l-3.76,9.72h-3.56l5.68-14.6c.56-1.44.36-2.04-.72-2.6l-1.32-.68,7.52-1.48-1.6,3.88-1.48,1.88-.88,2.24h.08c3.44-4.92,6.88-7.8,9.6-7.8,3.4,0,4.48,2.2,3,5.68l-3.8,9.04c-.76,1.84-.32,2.32.44,2.32Z" fill="#e5007d"/>
    <path d="m208.28,98.52c1.2,1.12,1.88,2.64,1.88,4.32,0,4.08-3.68,7.68-8.28,7.68-1.04,0-2.12-.2-3.04-.52-2.04.56-2.84,1.68-2.84,2.36,0,.8.56,1.32,2.52,1.6l5.64.84c3.4.52,5.2,1.52,5.2,3.6,0,2.6-2.6,6.8-10.88,6.8-6.64,0-8.92-1.76-8.92-3.84s1.44-3.44,4.72-4.52l1.72-.6-.88-.32-1.32.4c-.68-.64-1.08-1.44-1.08-2.36,0-2.44,2.32-3.88,5.72-4.84l-.56-.48-1.2.36c-1.36-1.4-2.16-2.96-2.16-4.8,0-4,3.56-7.72,8.24-7.72,1.88,0,3.52.52,4.76,1.4,1.48-1.64,3.04-2.64,4.72-2.64s2.2,1.2,2.2,2.16c0,1.24-1.16,2.24-2.16,2.24-.72,0-1.4-.48-1.44-1.44,0-.28.08-.6.24-.76l.4-.04.12-.68c-1.16,0-2.24.72-3.32,1.8Zm-9.16,25.12c5.16,0,6.76-1.96,6.76-3.44,0-.88-.76-1.4-2.2-1.6l-6.84-1.04c-.44-.08-.84-.16-1.2-.28-1.28.6-2.88,2.08-2.88,3.52s1.36,2.84,6.36,2.84Zm2.6-14.68c2.48,0,4.8-3.2,4.8-6.88,0-2.6-1.52-4.04-3.6-4.04-2.48,0-4.76,3.12-4.76,6.92,0,2.64,1.48,4,3.56,4Z" fill="#e5007d"/>
    <path d="m228.64,102.79h1.44l-3.32,8.6c-.68,1.88-.2,2.76,1.84,2.96l.88.08-.44,1.16h-11.52l.44-1.16.92-.08c1.76-.16,3.04-1.12,3.72-2.96l7.52-19.6c.68-1.88.12-2.76-1.84-2.96l-.84-.08.44-1.16h11.52l-.44,1.16-.96.08c-1.84.16-3.04,1.12-3.72,2.96l-3.36,8.8h12.88l3.36-8.8c.68-1.88.12-2.76-1.84-2.96l-.84-.08.44-1.16h11.52l-.44,1.16-.92.08c-1.84.16-3.08,1.12-3.76,2.96l-7.52,19.6c-.68,1.88-.16,2.76,1.88,2.96l.84.08-.44,1.16h-11.52l.44-1.16.92-.08c1.76-.16,3.04-1.12,3.72-2.96l3.32-8.6h1.4l.28-.8h-15.72l-.28.8Z" fill="#e5007d"/>
    <path d="m244.56,122.23c0-1.16.88-2.28,2.16-2.28,1.12,0,1.96.76,1.96,1.88,0,.32-.08.64-.16.8h-.72l-.2.6c2.36.2,5.24-1.44,9-5.36-.32-6.68-1.4-15.08-2-17.48-.28-1.12-.64-1.56-2.36-2.6l5.4-1.48c1,4.04,2.16,11.52,2.24,17.2l-.96,1.08.08.76c5.96-6.36,8.24-12.76,8.12-15.52h-1.48c-.2-.32-.32-.76-.32-1.24,0-1.08.8-2.16,2.32-2.16,1.4,0,2.12.96,2.12,2.8,0,3.08-2.48,9.12-8.96,16.52-5.72,6.56-9.6,9.04-13.28,9.04-1.96,0-2.96-1.2-2.96-2.56Z" fill="#e5007d"/>
    <path d="m274.16,114.03l-2.68,6.96c-.6,1.64-.28,2.52,1.44,2.68l.84.08-.4,1.04h-9.8l.4-1.04.8-.08c1.56-.16,2.52-1.08,3.12-2.68l7.68-20c.56-1.44.36-2.04-.72-2.6l-1.32-.68,7.48-1.48-.96,2.48-2,2.76-1.12,2.8h.16c2.76-4.56,6.16-7.8,9.08-7.8,3.16,0,5.08,2.44,5.08,6.04,0,6.44-5.72,13.12-11.76,13.12-1.92,0-3.88-.6-5.32-1.6Zm3.04-7.84l-2.24,5.8c.96,1.24,2.6,2.04,4.28,2.04,4.64,0,8.24-6.96,8.24-11.84,0-2.44-1.2-3.36-2.4-3.36-1.84,0-4.88,2.12-7.88,7.36Z" fill="#e5007d"/>
    <path d="m299.56,115.95c-3.96,0-6.56-3-6.56-7.16,0-6,5.24-12.4,11.2-12.4,3.36,0,5.04,1.68,5.04,3.6,0,2.84-4.64,6.12-13.16,6.12l-.12.76h1.04c-.04.4-.08.76-.08,1.12,0,3.24,2,5.44,4.64,5.44,1.88,0,3.64-1,5.28-2.8l.2.08c-1.8,3.36-4.52,5.24-7.48,5.24Zm-2.12-11.04c7.2-.72,8.52-2.96,8.52-5,0-1.28-.8-2.16-2.24-2.16-2.64,0-5.04,3.12-6.28,7.16Z" fill="#e5007d"/>
    <path d="m318,99.72l-1.84,2.44-.92,2.36h.12c3.24-4.88,6.2-7.92,8.68-7.92,1.96,0,2.92,1.12,2.92,2.64,0,1.44-1.04,2.72-2.44,2.72-1.12,0-1.92-.68-1.92-1.68,0-.52.28-1,.4-1.08h.68l.24-.64h-.84c-1.96,0-4.44,2.56-7.4,7.16l-3.84,9.88h-3.56l5.68-14.6c.56-1.44.36-2.04-.72-2.6l-1.32-.68,7.52-1.48-1.44,3.48Z" fill="#e5007d"/>
    <path d="m334.64,99.72l-1.84,2.44-.92,2.36h.12c3.24-4.88,6.2-7.92,8.68-7.92,1.96,0,2.92,1.12,2.92,2.64,0,1.44-1.04,2.72-2.44,2.72-1.12,0-1.92-.68-1.92-1.68,0-.52.28-1,.4-1.08h.68l.24-.64h-.84c-1.96,0-4.44,2.56-7.4,7.16l-3.84,9.88h-3.56l5.68-14.6c.56-1.44.36-2.04-.72-2.6l-1.32-.68,7.52-1.48-1.44,3.48Z" fill="#e5007d"/>
    <path d="m349.36,115.95c-3.96,0-6.56-3-6.56-7.16,0-6,5.24-12.4,11.2-12.4,3.36,0,5.04,1.68,5.04,3.6,0,2.84-4.64,6.12-13.16,6.12l-.12.76h1.04c-.04.4-.08.76-.08,1.12,0,3.24,2,5.44,4.64,5.44,1.88,0,3.64-1,5.28-2.8l.2.08c-1.8,3.36-4.52,5.24-7.48,5.24Zm-2.12-11.04c7.2-.72,8.52-2.96,8.52-5,0-1.28-.8-2.16-2.24-2.16-2.64,0-5.04,3.12-6.28,7.16Z" fill="#e5007d"/>
    <path d="m372.08,108.67h-.12c-3.2,4.72-6.2,7.24-8.52,7.24-2.84,0-4.56-2.28-4.56-6.2,0-5.24,5.4-13.24,12.84-13.24,1.52,0,3,.48,4.08,1.28l3.56-1.12-5.68,14.52c-.64,1.6-.52,2.32.48,2.32s2.28-.92,4.36-3.08l.32.2c-2.8,3.68-4.96,5.24-7,5.24-1.68,0-2.52-1.04-2.24-2.68l1.52-2.04.96-2.44Zm-7.04,4.8c1.64,0,4-2.12,6.48-5.92l3-7.6c-.8-1.32-1.88-1.92-3.28-1.92-4.56,0-8.6,7-8.6,11.6,0,2.6.84,3.84,2.4,3.84Z" fill="#e5007d"/>
    <path d="m384.36,111.11c-.76,1.92-.32,2.36.44,2.36,1.12,0,2.56-1.16,4.36-3.08l.32.2c-2.64,3.52-4.76,5.24-6.96,5.24-2.04,0-2.96-1.64-1.72-4.8l7.76-19.56c.56-1.44.36-2.04-.72-2.6l-1.32-.68,7.4-1.28-9.56,24.2Z" fill="#e5007d"/>
    <path d="m395.08,111.15c-.76,1.84-.32,2.32.44,2.32,1.12,0,2.56-1.2,4.36-3.08l.32.2c-2.64,3.52-4.8,5.24-7,5.24-2.04,0-2.96-1.64-1.68-4.8l4.08-10.04c.6-1.44.36-2.04-.72-2.6l-1.32-.68,7.52-1.48-6,14.92Zm5.32-22.92h4l-1.68,3.96h-4l1.68-3.96Z" fill="#e5007d"/>
    <path d="m406.44,110.71c-.6,1.56.16,2.28,1.24,2.28s2.36-.76,4.2-2.76l.16.08c-1.72,3-3.88,5.48-6.48,5.48s-4.04-1.92-2.64-5.56l4.56-11.88h-3.72c2.48-1.28,7.2-4.4,10.48-8.24l-2.48,6.68h5.28l-.6,1.56h-6.52l-.24.72h1.24l-4.48,11.64Z" fill="#e5007d"/>
    <path d="m408.92,122.23c0-1.16.88-2.28,2.16-2.28,1.12,0,1.96.76,1.96,1.88,0,.32-.08.64-.16.8h-.72l-.2.6c2.36.2,5.24-1.44,9-5.36-.32-6.68-1.4-15.08-2-17.48-.28-1.12-.64-1.56-2.36-2.6l5.4-1.48c1,4.04,2.16,11.52,2.24,17.2l-.96,1.08.08.76c5.96-6.36,8.24-12.76,8.12-15.52h-1.48c-.2-.32-.32-.76-.32-1.24,0-1.08.8-2.16,2.32-2.16,1.4,0,2.12.96,2.12,2.8,0,3.08-2.48,9.12-8.96,16.52-5.72,6.56-9.6,9.04-13.28,9.04-1.96,0-2.96-1.2-2.96-2.56Z" fill="#e5007d"/>
  </g>
</svg>